<?xml version="1.0" encoding="UTF-8"?>
<!-- Generator: visioncortex VTracer 0.6.4 -->
<svg version="1.1" xmlns="http://www.w3.org/2000/svg" width="379" height="344">
<path d="M0 0 C-0.33 0.66 -0.66 1.32 -1 2 C-3.98 2.61 -6.94 3.13 -9.94 3.62 C-23.25 6.05 -36.82 10.76 -47 20 C-47.77 20.65 -48.54 21.31 -49.34 21.98 C-62.67 33.55 -78.99 49.53 -80.75 68.06 C-80.94 71.04 -80.98 74.01 -81 77 C-81.05 78.52 -81.1 80.04 -81.16 81.57 C-82.31 124.81 -62.67 165.49 -33.41 196.43 C-31.35 198.63 -29.42 200.87 -27.5 203.19 C-23.23 208.11 -18.1 211.98 -13 216 C-12.21 216.66 -11.41 217.32 -10.6 218 C2.14 228.53 16.32 236.65 30.7 244.71 C33.81 246.45 36.9 248.22 40 250 C36.66 252.76 33.12 254.39 29.19 256.19 C22.91 259.24 19 262.3 15 268 C14.08 269.25 13.16 270.51 12.23 271.76 C6.73 279.33 1.56 287.03 -3.06 295.18 C-5.01 298.58 -6.85 301.61 -10 304 C-13.38 303.9 -15.05 302.31 -17.31 299.94 C-17.91 299.31 -18.52 298.68 -19.14 298.03 C-24.15 292.58 -28.8 287.11 -33 281 C-40.81 284.59 -46.37 291.36 -51.95 297.7 C-54.21 300.24 -56.56 302.63 -59 305 C-59.66 305.66 -60.32 306.32 -61 307 C-63.37 306.98 -63.37 306.98 -66 306 C-68.04 303.65 -68.04 303.65 -70.06 300.38 C-70.43 299.78 -70.8 299.19 -71.18 298.58 C-76.98 289.02 -81.95 278.96 -87 269 C-90.48 269.57 -93.23 270.45 -96.33 272.11 C-97.13 272.53 -97.93 272.96 -98.75 273.4 C-99.58 273.84 -100.4 274.29 -101.25 274.75 C-102.06 275.18 -102.87 275.61 -103.7 276.05 C-106.98 277.81 -110.24 279.55 -113.44 281.44 C-114.22 281.9 -115 282.36 -115.8 282.83 C-116.49 283.24 -117.18 283.66 -117.89 284.09 C-120.39 285.17 -122.3 285.16 -125 285 C-128 278.83 -129.34 272.58 -130.69 265.88 C-130.91 264.8 -131.14 263.73 -131.37 262.63 C-132.32 258 -133.14 253.74 -133 249 C-133.81 249.23 -134.62 249.46 -135.46 249.7 C-143.97 252.14 -152.49 254.57 -161 257 C-162.24 257.36 -163.47 257.73 -164.75 258.11 C-167.73 258.93 -169.94 259.35 -173 259 C-175.51 256.49 -175.24 254.99 -175.25 251.57 C-175.25 250.82 -175.24 250.08 -175.23 249.32 C-175.23 248.55 -175.23 247.78 -175.23 246.98 C-175.23 245.35 -175.22 243.71 -175.21 242.07 C-175.19 239.6 -175.19 237.14 -175.19 234.67 C-175.17 226.4 -174.99 218.22 -174 210 C-177.11 208.45 -180.38 208.92 -183.78 208.97 C-185.36 208.99 -186.94 209 -188.52 209.01 C-191.01 209.03 -193.51 209.06 -196.01 209.1 C-198.41 209.13 -200.81 209.14 -203.22 209.16 C-204.34 209.18 -204.34 209.18 -205.49 209.2 C-207.33 209.21 -209.17 209.11 -211 209 C-211.66 208.34 -212.32 207.68 -213 207 C-212.61 181.07 -197.97 150.97 -187 128 C-186.69 127.34 -186.39 126.68 -186.07 126.01 C-175.65 103.61 -161.31 83.44 -144.36 65.52 C-142.4 63.42 -140.57 61.29 -138.75 59.06 C-124.75 43.04 -105.76 30.69 -87 21 C-86.2 20.58 -85.4 20.17 -84.58 19.74 C-58 6.09 -29.87 -0.39 0 0 Z " fill="#8BA2AF" transform="translate(243,23)"/>
<path d="M0 0 C-0.33 0.66 -0.66 1.32 -1 2 C-3.98 2.61 -6.94 3.13 -9.94 3.62 C-20.45 5.51 -29.5 9.24 -39 14 C-40.04 14.51 -41.08 15.02 -42.15 15.55 C-54.31 21.74 -64.42 29.13 -73.91 38.92 C-75.72 40.73 -77.56 42.3 -79.56 43.88 C-84.29 47.81 -87.52 52.98 -91 58 C-91.87 59.17 -92.75 60.33 -93.62 61.5 C-98.09 67.79 -101.73 74.66 -104.23 81.95 C-105.11 84.3 -106.21 86.5 -107.31 88.75 C-109.76 94.05 -111.51 99.48 -113.19 105.06 C-113.44 105.89 -113.69 106.72 -113.94 107.57 C-127.19 152.76 -119.27 202.04 -102 245 C-101.67 245.33 -101.34 245.66 -101 246 C-100.96 247.67 -100.96 249.33 -101 251 C-103.15 250.69 -105.29 250.38 -107.44 250.06 C-108.63 249.89 -109.83 249.71 -111.06 249.54 C-114 249 -114 249 -115 248 C-117.69 247.76 -120.36 247.58 -123.06 247.44 C-123.82 247.39 -124.58 247.35 -125.36 247.31 C-127.24 247.2 -129.12 247.1 -131 247 C-131 247.66 -131 248.32 -131 249 C-132.49 249.33 -132.49 249.33 -134.02 249.66 C-143.25 251.75 -152.29 254.18 -161.31 257.07 C-169.23 259.55 -169.23 259.55 -173 259 C-175.51 256.49 -175.24 254.99 -175.25 251.57 C-175.25 250.82 -175.24 250.08 -175.23 249.32 C-175.23 248.55 -175.23 247.78 -175.23 246.98 C-175.23 245.35 -175.22 243.71 -175.21 242.07 C-175.19 239.6 -175.19 237.14 -175.19 234.67 C-175.17 226.4 -174.99 218.22 -174 210 C-177.11 208.45 -180.38 208.92 -183.78 208.97 C-185.36 208.99 -186.94 209 -188.52 209.01 C-191.01 209.03 -193.51 209.06 -196.01 209.1 C-198.41 209.13 -200.81 209.14 -203.22 209.16 C-204.34 209.18 -204.34 209.18 -205.49 209.2 C-207.33 209.21 -209.17 209.11 -211 209 C-211.66 208.34 -212.32 207.68 -213 207 C-212.61 181.07 -197.97 150.97 -187 128 C-186.69 127.34 -186.39 126.68 -186.07 126.01 C-175.65 103.61 -161.31 83.44 -144.36 65.52 C-142.4 63.42 -140.57 61.29 -138.75 59.06 C-124.75 43.04 -105.76 30.69 -87 21 C-86.2 20.58 -85.4 20.17 -84.58 19.74 C-58 6.09 -29.87 -0.39 0 0 Z " fill="#FAC112" transform="translate(243,23)"/>
<path d="M0 0 C9.21 -0.02 18.41 -0.04 27.62 -0.05 C31.9 -0.06 36.18 -0.06 40.45 -0.08 C44.6 -0.09 48.74 -0.09 52.88 -0.09 C54.45 -0.1 56.01 -0.1 57.58 -0.11 C65.98 -0.13 74.36 -0.01 82.76 0.43 C83.5 0.46 84.24 0.5 85.01 0.54 C96.07 1.18 105.06 4.59 112.75 12.69 C120.7 22.27 121.85 33.98 121 46 C119.17 56.96 114.29 63.99 105.68 70.84 C97.09 76.62 84.34 79.89 74 78 C69.12 75.88 66.98 72.33 64.31 67.94 C58.37 58.61 50.95 51.45 42.5 44.38 C41 43 41 43 40 41 C39.84 36.7 40.15 33.26 41 29 C49.25 29 57.5 29 66 29 C66 36.92 66 44.84 66 53 C67.32 52.67 68.64 52.34 70 52 C72.27 51.83 74.54 51.68 76.81 51.56 C85.44 51.35 85.44 51.35 92.65 47.3 C94.36 44.38 94.43 42.37 94.44 39 C94.47 37.45 94.47 37.45 94.5 35.88 C93.87 32.27 92.88 31.2 90 29 C86.2 27.17 83.09 26.73 78.9 26.65 C77.69 26.62 76.48 26.6 75.24 26.57 C73.94 26.55 72.64 26.53 71.31 26.52 C69.96 26.49 68.61 26.47 67.26 26.44 C64.43 26.39 61.61 26.35 58.78 26.31 C55.16 26.26 51.55 26.2 47.93 26.12 C45.14 26.07 42.36 26.03 39.57 25.98 C37.59 25.95 35.61 25.91 33.63 25.87 C31.82 25.85 31.82 25.85 29.97 25.83 C28.91 25.82 27.85 25.8 26.76 25.78 C23.96 26 22.34 26.46 20 28 C19.09 29.8 19.09 29.8 18.73 31.91 C18.57 32.67 18.4 33.44 18.23 34.22 C17.99 35.41 17.99 35.41 17.75 36.62 C17.58 37.43 17.4 38.23 17.23 39.05 C16.8 41.03 16.4 43.02 16 45 C17.52 45.04 17.52 45.04 19.08 45.08 C33.71 45.61 46.33 48.72 56.75 59.69 C64.06 68.6 67.63 80.27 67.25 91.78 C65.55 106.87 59.5 117.85 47.97 127.74 C45.16 129.85 43.57 131 40 131 C40 130.42 40 129.83 40 129.23 C39.98 123.13 39.92 117.03 39.85 110.93 C39.82 108.66 39.81 106.38 39.8 104.11 C39.8 100.83 39.75 97.56 39.71 94.28 C39.71 93.27 39.71 92.26 39.72 91.22 C39.58 84.58 38.29 80.15 34 75 C29.77 71.06 26.18 70.33 20.57 70.53 C16.95 71.19 14.37 72.9 11.27 74.81 C3.13 79.08 -5.65 76.32 -14 74 C-15.22 69.65 -14.71 66.48 -13.74 62.1 C-13.59 61.42 -13.44 60.75 -13.29 60.06 C-12.81 57.84 -12.31 55.63 -11.82 53.42 C-11.48 51.88 -11.14 50.34 -10.8 48.8 C-9.92 44.75 -9.02 40.71 -8.12 36.67 C-7.2 32.54 -6.29 28.41 -5.38 24.28 C-3.6 16.19 -1.8 8.09 0 0 Z " fill="#FB540B" transform="translate(220,72)"/>
<path d="M0 0 C0.99 0 1.98 0 3 0 C3.04 1.18 3.04 1.18 3.09 2.39 C4.95 47.7 20.28 87.32 51.59 120.43 C53.65 122.63 55.58 124.87 57.5 127.19 C61.77 132.11 66.9 135.98 72 140 C72.79 140.66 73.59 141.32 74.4 142 C87.14 152.53 101.32 160.65 115.7 168.71 C118.81 170.45 121.9 172.22 125 174 C121.66 176.76 118.12 178.39 114.19 180.19 C107.91 183.24 104 186.3 100 192 C99.08 193.25 98.16 194.51 97.23 195.76 C91.73 203.33 86.56 211.03 81.94 219.18 C79.99 222.58 78.15 225.61 75 228 C71.62 227.9 69.95 226.31 67.69 223.94 C67.08 223.31 66.48 222.67 65.86 222.02 C60.55 216.25 55.61 210.35 51 204 C53.33 198.42 57.8 195.77 63 193 C68.54 190.91 74.27 189.44 80 188 C79.15 187.29 78.31 186.57 77.44 185.84 C73.95 182.9 70.48 179.95 67 177 C65.85 176.02 65.85 176.02 64.67 175.03 C60.2 171.18 56.06 167.08 51.98 162.82 C50.04 160.79 50.04 160.79 47 160 C45.07 158.39 43.95 156.92 42.71 154.73 C40.8 151.67 38.6 149.19 36.19 146.5 C24.6 133.14 2.98 107.21 3 88.38 C3.22 85.87 3.22 85.87 1.5 83.69 C-0.23 80.58 0 78.58 0.16 75.1 C-0.08 71.97 -1.53 69.78 -3.05 67.08 C-4.4 64.12 -4.58 61.3 -4.73 58.08 C-4.88 55.96 -4.88 55.96 -5.99 54.15 C-7.1 51.78 -7.32 50.08 -7.45 47.47 C-7.49 46.6 -7.54 45.74 -7.58 44.84 C-7.62 43.92 -7.65 43.01 -7.69 42.06 C-7.73 41.12 -7.77 40.19 -7.81 39.22 C-8.19 28.56 -8.12 17.88 -4.06 7.88 C-3.72 7.03 -3.38 6.18 -3.04 5.3 C-2 3 -2 3 0 0 Z " fill="#A9A9A9" transform="translate(158,99)"/>
<path d="M0 0 C-3.06 1.63 -6.12 3.25 -9.19 4.88 C-10.05 5.34 -10.92 5.8 -11.81 6.27 C-12.65 6.71 -13.49 7.16 -14.36 7.62 C-15.51 8.23 -15.51 8.23 -16.69 8.85 C-19.08 10.04 -21.52 11.01 -24 12 C-31.22 16.26 -37.64 21.19 -43.76 26.91 C-45.68 28.71 -47.65 30.39 -49.69 32.06 C-53.55 35.35 -56.77 39.1 -60 43 C-60.57 43.67 -61.13 44.33 -61.71 45.02 C-68.48 53.29 -73.96 62.86 -78.02 72.74 C-78.91 74.78 -79.89 76.72 -80.92 78.7 C-83.09 83.01 -84.6 87.39 -86 92 C-86.25 92.83 -86.51 93.66 -86.77 94.51 C-87.53 97.01 -88.27 99.5 -89 102 C-89.21 102.7 -89.41 103.39 -89.63 104.11 C-102.39 147.92 -93.69 196.48 -77 238 C-76.67 238.33 -76.34 238.66 -76 239 C-75.96 240.67 -75.96 242.33 -76 244 C-78.15 243.69 -80.29 243.38 -82.44 243.06 C-83.63 242.89 -84.83 242.71 -86.06 242.54 C-89 242 -89 242 -90 241 C-92.69 240.76 -95.36 240.58 -98.06 240.44 C-98.82 240.39 -99.58 240.35 -100.36 240.31 C-102.24 240.2 -104.12 240.1 -106 240 C-106 240.66 -106 241.32 -106 242 C-107.49 242.33 -107.49 242.33 -109.02 242.66 C-118.25 244.75 -127.29 247.18 -136.31 250.07 C-144.23 252.55 -144.23 252.55 -148 252 C-150.51 249.49 -150.24 247.99 -150.25 244.57 C-150.25 243.82 -150.24 243.08 -150.23 242.32 C-150.23 241.55 -150.23 240.78 -150.23 239.98 C-150.23 238.35 -150.22 236.71 -150.21 235.07 C-150.19 232.6 -150.19 230.14 -150.19 227.67 C-150.13 204.13 -150.13 204.13 -148 202 C-133.81 201 -126.58 204.3 -115 212 C-115.14 210.94 -115.28 209.89 -115.42 208.8 C-116.93 196.83 -117.4 185 -117.38 172.94 C-117.37 172 -117.37 171.06 -117.37 170.09 C-117.34 155.02 -116.35 140.74 -113 126 C-112.82 125.14 -112.64 124.27 -112.45 123.38 C-105.64 91.14 -90.76 63.55 -69 39 C-68.36 38.21 -67.72 37.41 -67.07 36.59 C-57.95 25.46 -15.61 -7.8 0 0 Z " fill="#E52125" transform="translate(218,30)"/>
<path d="M0 0 C2.58 3.8 1.98 7.4 1.56 11.75 C0.75 22.28 0.42 32.94 4 43 C4.12 44.11 4.25 45.23 4.38 46.38 C4.93 49.61 5.52 51.17 7.06 53.94 C9.35 58.17 9.24 61.24 9 66 C9.78 69.07 9.78 69.07 12 71 C12.2 72.91 12.41 74.82 12.61 76.73 C13.31 80.8 15.13 84.32 16.94 88 C17.34 88.82 17.74 89.65 18.15 90.5 C26.74 107.87 38.27 125.27 52 139 C52 139.99 52 140.98 52 142 C52.99 142.33 53.98 142.66 55 143 C55 143.66 55 144.32 55 145 C55.6 145.11 56.19 145.21 56.81 145.32 C59.31 146.1 60.28 146.96 62.07 148.84 C62.91 149.72 62.91 149.72 63.77 150.61 C64.36 151.23 64.95 151.86 65.56 152.5 C70.66 157.75 75.82 162.54 81.6 167.04 C84.25 169.2 86.62 171.55 89 174 C87.83 174.27 86.66 174.54 85.45 174.81 C72.89 177.87 64.24 181.6 56 192 C54.8 193.1 53.57 194.16 52.31 195.19 C48.18 198.71 44.64 202.62 41.05 206.7 C38.79 209.24 36.44 211.63 34 214 C33.34 214.66 32.68 215.32 32 216 C29.63 215.98 29.63 215.98 27 215 C24.96 212.65 24.96 212.65 22.94 209.38 C22.57 208.78 22.2 208.18 21.81 207.57 C17.5 200.47 13.75 193.05 9.99 185.65 C9.5 184.69 9.01 183.72 8.5 182.73 C8.07 181.87 7.63 181.01 7.19 180.12 C6.06 177.87 6.06 177.87 4 176 C15.69 170.56 25.37 170.05 38 172 C37.67 171.45 37.34 170.89 36.99 170.32 C29.21 157.35 29.21 157.35 27.6 154.67 C26.55 152.91 25.49 151.16 24.42 149.41 C-2.78 104.82 -11.48 52.87 -1 2 C-0.67 1.34 -0.34 0.68 0 0 Z " fill="#2A555B" transform="translate(150,114)"/>
<path d="M0 0 C3.87 -0.12 7.75 -0.19 11.62 -0.25 C13.27 -0.3 13.27 -0.3 14.94 -0.35 C21.18 -0.43 25.13 -0.33 30 4 C30.65 4.54 31.3 5.08 31.98 5.63 C33.08 6.63 34.19 7.63 35.29 8.63 C38.83 11.46 41.91 12.48 46.5 12.4 C51.92 11.53 56.97 9.15 62 7 C62.09 11.08 62.14 15.17 62.19 19.25 C62.21 20.41 62.24 21.57 62.26 22.76 C62.27 23.88 62.28 24.99 62.29 26.14 C62.31 27.17 62.32 28.19 62.34 29.25 C61.95 32.4 61.18 33.73 59 36 C48.66 40.05 35.56 38.32 25.53 34.23 C13.73 28.5 5.58 20.43 1 8 C0.53 5.33 0.25 2.71 0 0 Z " fill="#FB5B0C" transform="translate(195,171)"/>
<path d="M0 0 C7.51 -0.05 15.02 -0.08 22.53 -0.1 C26.02 -0.11 29.51 -0.13 32.99 -0.15 C37 -0.18 41.01 -0.19 45.02 -0.2 C46.27 -0.21 47.53 -0.22 48.82 -0.23 C50.56 -0.23 50.56 -0.23 52.34 -0.23 C53.36 -0.23 54.38 -0.24 55.44 -0.24 C58 0 58 0 61 2 C61 2.99 61 3.98 61 5 C61.66 5.41 62.32 5.83 63 6.25 C65 8 65 8 65.25 11.69 C65.17 12.78 65.08 13.87 65 15 C64.01 15.33 63.02 15.66 62 16 C62.66 17.98 63.32 19.96 64 22 C62.9 22.96 61.79 23.92 60.69 24.88 C60.07 25.41 59.46 25.94 58.82 26.49 C57 28 57 28 54 30 C53.34 29.67 52.68 29.34 52 29 C51.67 29.66 51.34 30.32 51 31 C50.34 31 49.68 31 49 31 C48.5 30.01 48.5 30.01 48 29 C42.53 28.67 38.67 29.01 34 32 C32.24 35.21 31.06 38.5 30 42 C27.52 39.62 25.27 37.13 23.06 34.5 C19.16 29.98 14.79 26.02 10.36 22.04 C6.1 18.2 6.1 18.2 5 16 C4.84 11.7 5.15 8.26 6 4 C14.25 4 22.5 4 31 4 C31 11.92 31 19.84 31 28 C32.32 27.67 33.64 27.34 35 27 C37.27 26.83 39.54 26.68 41.81 26.56 C50.44 26.35 50.44 26.35 57.65 22.3 C59.36 19.38 59.43 17.37 59.44 14 C59.46 12.97 59.48 11.94 59.5 10.88 C58.87 7.27 57.88 6.2 55 4 C51.5 2.36 48.69 1.74 44.84 1.68 C43.34 1.65 43.34 1.65 41.81 1.62 C40.74 1.61 39.67 1.6 38.57 1.59 C37.47 1.57 36.37 1.55 35.23 1.53 C31.72 1.47 28.2 1.42 24.69 1.38 C22.3 1.34 19.92 1.3 17.53 1.26 C11.69 1.16 5.84 1.08 0 1 C0 0.67 0 0.34 0 0 Z " fill="#FA580D" transform="translate(255,97)"/>
<path d="M0 0 C7.38 -0.02 14.76 -0.04 22.15 -0.05 C25.58 -0.06 29 -0.06 32.43 -0.08 C58.69 -0.16 58.69 -0.16 69.56 0.43 C70.26 0.46 70.95 0.5 71.66 0.54 C82.43 1.23 91.28 4.82 98.75 12.69 C106.7 22.27 107.85 33.98 107 46 C105.17 56.96 100.29 63.99 91.68 70.84 C82.87 76.77 70.57 79.56 60 78 C56.88 76.5 56.88 76.5 55 75 C58 75 58 75 61 76 C66.32 76.6 66.32 76.6 71 74.5 C71.33 74 71.66 73.51 72 73 C72 73.66 72 74.32 72 75 C72.78 74.81 73.57 74.63 74.38 74.44 C77 74 77 74 79 75 C79 74.34 79 73.68 79 73 C80.42 72.54 80.42 72.54 81.88 72.06 C84.86 71.13 84.86 71.13 87 70 C87.31 69.07 87.62 68.14 87.94 67.19 C88.94 64.17 90.07 62.46 92 60 C92 59.34 92 58.68 92 58 C92.78 57.86 93.57 57.71 94.38 57.56 C96.96 57.12 96.96 57.12 99 56 C99.66 56.33 100.32 56.66 101 57 C101.19 55.3 101.19 55.3 101.38 53.56 C101.75 50.47 102.32 47.52 103.06 44.5 C104.87 36.51 103.96 30.62 101 23 C99.82 22.88 99.82 22.88 98.62 22.75 C96 22 96 22 94.56 20.19 C93.84 17.38 94.63 16.46 96 14 C95.01 13.07 94.01 12.16 93 11.25 C92.44 10.74 91.89 10.23 91.31 9.7 C84.72 4.85 79.52 3.45 71.38 3.88 C69.74 3.94 68.1 4 66.46 4.05 C65.39 4.11 65.39 4.11 64.3 4.16 C62 4 62 4 59.22 3.01 C56.02 2.01 53.52 1.73 50.18 1.68 C49.06 1.66 47.94 1.64 46.78 1.62 C45.59 1.61 44.39 1.6 43.16 1.59 C41.93 1.57 40.7 1.55 39.42 1.53 C35.49 1.47 31.56 1.42 27.62 1.38 C24.95 1.34 22.28 1.3 19.61 1.26 C13.08 1.16 6.54 1.08 0 1 C0 0.67 0 0.34 0 0 Z " fill="#E6AD44" transform="translate(234,72)"/>
<path d="M0 0 C4.62 0 9.24 0 14 0 C14 0.33 14 0.66 14 1 C9.71 1 5.42 1 1 1 C1 2.98 1 4.96 1 7 C1.66 7 2.32 7 3 7 C2.34 8.65 1.68 10.3 1 12 C1.99 11.67 2.98 11.34 4 11 C3.81 11.56 3.63 12.11 3.44 12.69 C2.92 15.4 3.34 17.34 4 20 C-0.88 22 -0.88 22 -2 22 C-2.12 22.93 -2.24 23.86 -2.37 24.82 C-3.9 36.15 -3.9 36.15 -5.19 40.12 C-6.02 43.08 -5.91 44.17 -5 47 C-5.33 47.99 -5.66 48.98 -6 50 C-5.34 50 -4.68 50 -4 50 C-4.19 52.38 -4.19 52.38 -5 55 C-6.65 55.66 -8.3 56.32 -10 57 C-10.66 61.62 -11.32 66.24 -12 71 C-3.89 73.39 1.81 74.64 10 72 C12.59 70.09 12.59 70.09 14 68 C13.34 67.67 12.68 67.34 12 67 C12.5 65.51 12.5 65.51 13 64 C13.78 64.33 14.57 64.66 15.38 65 C17.84 66.12 17.84 66.12 20 66 C20 66.99 20 67.98 20 69 C22.97 69 25.94 69 29 69 C29.33 69.66 29.66 70.32 30 71 C29.24 70.94 28.48 70.88 27.69 70.82 C20.86 70.53 16.94 71.19 11.2 74.81 C3.18 79.16 -5.75 76.29 -14 74 C-15.22 69.65 -14.71 66.48 -13.74 62.1 C-13.59 61.42 -13.44 60.75 -13.29 60.06 C-12.81 57.84 -12.31 55.63 -11.82 53.42 C-11.48 51.88 -11.14 50.34 -10.8 48.8 C-9.92 44.75 -9.02 40.71 -8.12 36.67 C-7.2 32.54 -6.29 28.41 -5.38 24.28 C-3.6 16.19 -1.8 8.09 0 0 Z " fill="#DC1C16" transform="translate(220,72)"/>
<path d="M0 0 C-3.06 1.63 -6.12 3.25 -9.19 4.88 C-10.05 5.34 -10.92 5.8 -11.81 6.27 C-12.65 6.71 -13.49 7.16 -14.36 7.62 C-15.13 8.03 -15.9 8.43 -16.69 8.85 C-19.08 10.04 -21.52 11.01 -24 12 C-32.15 16.81 -39.11 22.56 -46 29 C-48.31 31.02 -50.66 33.01 -53 35 C-54.5 33.62 -54.5 33.62 -56 32 C-56 31.34 -56 30.68 -56 30 C-57.96 30.11 -57.96 30.11 -60 31 C-60.7 32.65 -61.37 34.32 -62 36 C-63.49 36.5 -63.49 36.5 -65 37 C-65.66 37.99 -66.32 38.98 -67 40 C-67.66 39.67 -68.32 39.34 -69 39 C-59.91 27.24 -16.57 -8.28 0 0 Z " fill="#DD2A22" transform="translate(218,30)"/>
<path d="M0 0 C-0.33 0.66 -0.66 1.32 -1 2 C-2.81 2.56 -2.81 2.56 -5.16 3 C-6.01 3.16 -6.87 3.33 -7.76 3.5 C-8.66 3.66 -9.57 3.83 -10.5 4 C-12.26 4.33 -14.02 4.67 -15.78 5 C-16.65 5.16 -17.52 5.33 -18.42 5.5 C-31.13 7.97 -42.81 11.64 -54.44 17.36 C-59.82 20 -59.82 20 -62 20 C-62 19.34 -62 18.68 -62 18 C-61.01 18 -60.02 18 -59 18 C-59 17.34 -59 16.68 -59 16 C-58.01 15.34 -57.02 14.68 -56 14 C-54.81 11.95 -54.81 11.95 -54 10 C-55.24 10.35 -56.47 10.7 -57.75 11.06 C-60.95 11.97 -62.81 11.89 -66 11 C-44.13 3.95 -23.03 -0.3 0 0 Z " fill="#F9B926" transform="translate(243,23)"/>
<path d="M0 0 C0 3 0 3 -2.31 5.35 C-3.35 6.26 -4.39 7.16 -5.44 8.06 C-12.83 14.61 -19.86 21.5 -25 30 C-26.32 29.34 -27.64 28.68 -29 28 C-29.33 28.99 -29.66 29.98 -30 31 C-29.34 30.67 -28.68 30.34 -28 30 C-28.33 30.99 -28.66 31.98 -29 33 C-32.06 34.19 -32.06 34.19 -35 35 C-34.34 35.33 -33.68 35.66 -33 36 C-35.64 36.66 -38.28 37.32 -41 38 C-42.03 41.66 -42.03 41.66 -42.19 44.12 C-43 46 -43 46 -46.06 47.25 C-47.03 47.5 -48 47.75 -49 48 C-46.91 42.02 -43.03 37.8 -39 33 C-38.41 32.28 -37.81 31.56 -37.2 30.82 C-33.79 26.79 -30.18 23.24 -26.14 19.84 C-24.65 18.56 -23.19 17.23 -21.76 15.88 C-15.07 9.56 -7.82 4.77 0 0 Z " fill="#9A98A4" transform="translate(197,39)"/>
<path d="M0 0 C7.51 -0.05 15.02 -0.08 22.53 -0.1 C26.02 -0.11 29.51 -0.13 32.99 -0.15 C37 -0.18 41.01 -0.19 45.02 -0.2 C46.27 -0.21 47.53 -0.22 48.82 -0.23 C50.56 -0.23 50.56 -0.23 52.34 -0.23 C53.36 -0.23 54.38 -0.24 55.44 -0.24 C58 0 58 0 61 2 C61 2.99 61 3.98 61 5 C61.66 5.41 62.32 5.83 63 6.25 C65 8 65 8 65.25 11.69 C65.17 12.78 65.08 13.87 65 15 C64.01 15.33 63.02 15.66 62 16 C62.66 17.98 63.32 19.96 64 22 C62.9 22.96 61.79 23.92 60.69 24.88 C60.07 25.41 59.46 25.94 58.82 26.49 C57 28 57 28 54 30 C53.34 29.67 52.68 29.34 52 29 C51.67 29.66 51.34 30.32 51 31 C50.34 31 49.68 31 49 31 C48.5 30.01 48.5 30.01 48 29 C42.37 28.76 37.45 29.61 32 31 C31.67 30.01 31.34 29.02 31 28 C34.59 26.92 38.08 26.76 41.81 26.56 C50.44 26.35 50.44 26.35 57.65 22.3 C59.36 19.38 59.43 17.37 59.44 14 C59.46 12.97 59.48 11.94 59.5 10.88 C58.87 7.27 57.88 6.2 55 4 C51.5 2.36 48.69 1.74 44.84 1.68 C43.34 1.65 43.34 1.65 41.81 1.62 C40.74 1.61 39.67 1.6 38.57 1.59 C37.47 1.57 36.37 1.55 35.23 1.53 C31.72 1.47 28.2 1.42 24.69 1.38 C22.3 1.34 19.92 1.3 17.53 1.26 C11.69 1.16 5.84 1.08 0 1 C0 0.67 0 0.34 0 0 Z " fill="#E78029" transform="translate(255,97)"/>
<path d="M0 0 C3.92 -0.09 7.83 -0.14 11.75 -0.19 C12.86 -0.21 13.97 -0.24 15.12 -0.26 C16.19 -0.27 17.26 -0.28 18.36 -0.29 C19.34 -0.31 20.33 -0.32 21.34 -0.34 C24.39 0.05 25.74 0.97 28 3 C25.54 3.85 24.03 4 21.44 3.56 C16.62 2.77 11.87 2.92 7 3 C5.13 7.18 4.95 9.5 6 14 C8.97 14.5 8.97 14.5 12 15 C12.33 17.31 12.66 19.62 13 22 C14.98 21.67 16.96 21.34 19 21 C19 21.66 19 22.32 19 23 C19.66 23.33 20.32 23.66 21 24 C21 24.66 21 25.32 21 26 C21.66 26.33 22.32 26.66 23 27 C23 27.66 23 28.32 23 29 C23.66 29 24.32 29 25 29 C25.33 29.99 25.66 30.98 26 32 C20.27 31.63 17.01 30.09 12.94 26.19 C12.42 25.7 11.9 25.21 11.37 24.71 C4.22 17.64 0.97 9.88 0 0 Z " fill="#F31D0A" transform="translate(195,171)"/>
<path d="M0 0 C2.58 3.8 1.98 7.4 1.56 11.75 C0.75 22.28 0.42 32.94 4 43 C4.12 44.11 4.25 45.23 4.38 46.38 C4.93 49.6 5.55 51.27 7.06 54.06 C8.91 57.52 9.57 60.02 9 64 C8.01 64.99 8.01 64.99 7 66 C2.72 54.4 -0.13 43.23 -1.74 30.97 C-2.4 25.98 -2.4 25.98 -3.56 21.08 C-4.04 18.79 -3.9 17.25 -3.48 14.96 C-3.34 14.22 -3.21 13.47 -3.07 12.7 C-2.85 11.55 -2.85 11.55 -2.62 10.38 C-2.42 9.21 -2.42 9.21 -2.2 8.02 C-1.15 2.3 -1.15 2.3 0 0 Z " fill="#3A5256" transform="translate(150,114)"/>
<path d="M0 0 C4.67 7.01 4.82 16.94 3.5 25.07 C1.7 33.88 -0.95 42 -8 48 C-8.4 44.48 -8.13 43.2 -6.12 40.19 C-5.42 39.47 -4.72 38.74 -4 38 C-3.34 38 -2.68 38 -2 38 C-1.98 36.74 -1.96 35.48 -1.94 34.19 C-1.93 33.48 -1.91 32.77 -1.9 32.04 C-1.92 29.8 -1.92 29.8 -3 27 C-3.2 24.84 -3.2 24.84 -3.25 22.5 C-3.29 21.34 -3.29 21.34 -3.33 20.16 C-2.92 17.48 -1.92 16.82 0 15 C0 14.01 0 13.02 0 12 C-0.66 12 -1.32 12 -2 12 C-1.67 11.13 -1.34 10.27 -1 9.38 C-0.01 6.04 0.16 3.45 0 0 Z " fill="#FA6210" transform="translate(283,144)"/>
<path d="M0 0 C0.09 4.08 0.14 8.17 0.19 12.25 C0.21 13.41 0.24 14.57 0.26 15.76 C0.27 16.88 0.28 17.99 0.29 19.14 C0.31 20.17 0.32 21.19 0.34 22.25 C-0.05 25.4 -0.82 26.73 -3 29 C-10.92 32.1 -19.76 30.89 -28 30 C-28 29.67 -28 29.34 -28 29 C-26.35 28.91 -26.35 28.91 -24.68 28.82 C-23.22 28.73 -21.77 28.65 -20.31 28.56 C-19.59 28.52 -18.87 28.48 -18.13 28.44 C-14.33 28.22 -10.71 27.87 -7 27 C-7.5 24.53 -7.5 24.53 -8 22 C-7.01 22 -6.02 22 -5 22 C-5 22.99 -5 23.98 -5 25 C-4.01 25 -3.02 25 -2 25 C-2.33 24.01 -2.66 23.02 -3 22 C-2.91 19.25 -2.77 16.55 -2.56 13.81 C-2.51 13.06 -2.46 12.31 -2.4 11.54 C-2.27 9.69 -2.14 7.85 -2 6 C-6.7 6.61 -6.7 6.61 -11.31 7.62 C-15.58 8.22 -19.74 7.54 -24 7 C-24 6.34 -24 5.68 -24 5 C-24.99 5 -25.98 5 -27 5 C-27 4.34 -27 3.68 -27 3 C-25.76 3.5 -25.76 3.5 -24.5 4 C-16.21 6.37 -11.13 4.56 -3.44 1.09 C-1 0 -1 0 0 0 Z " fill="#E49E3E" transform="translate(257,178)"/>
<path d="M0 0 C-3.06 1.63 -6.12 3.25 -9.19 4.88 C-10.05 5.34 -10.92 5.8 -11.81 6.27 C-12.65 6.71 -13.49 7.16 -14.36 7.62 C-15.13 8.03 -15.9 8.43 -16.69 8.85 C-19 10 -19 10 -21.61 11.04 C-24.68 12.28 -27.2 14.01 -29.94 15.88 C-30.94 16.55 -31.94 17.23 -32.96 17.93 C-33.97 18.61 -34.97 19.3 -36 20 C-38 21.34 -40 22.67 -42 24 C-42.33 23.01 -42.66 22.02 -43 21 C-42.36 20.71 -41.72 20.42 -41.06 20.12 C-38.85 19.17 -38.85 19.17 -38 17 C-37.01 17 -36.02 17 -35 17 C-35 16.34 -35 15.68 -35 15 C-36.98 15.66 -38.96 16.32 -41 17 C-38.22 13.62 -34.42 12 -30.56 10.12 C-29.85 9.77 -29.14 9.42 -28.4 9.06 C-4.84 -2.42 -4.84 -2.42 0 0 Z " fill="#D72D1D" transform="translate(218,30)"/>
<path d="M0 0 C0 0.99 0 1.98 0 3 C0.35 3.93 0.7 4.86 1.06 5.81 C2.51 10.72 1.59 13.85 -0.74 18.37 C-1.45 19.54 -2.16 20.71 -2.88 21.88 C-5.81 26.8 -8.25 31.54 -10 37 C-10.33 37 -10.66 37 -11 37 C-11 35.02 -11 33.04 -11 31 C-10.34 31 -9.68 31 -9 31 C-9.06 29.86 -9.06 29.86 -9.12 28.69 C-9 26 -9 26 -7 23 C-6.34 23 -5.68 23 -5 23 C-4.67 21.02 -4.34 19.04 -4 17 C-4.66 17 -5.32 17 -6 17 C-6.66 16.34 -7.32 15.68 -8 15 C-10.47 16.48 -10.47 16.48 -13 18 C-11.48 13.14 -8.67 9.94 -5.38 6.19 C-4.6 5.29 -4.6 5.29 -3.81 4.38 C-2.55 2.91 -1.27 1.46 0 0 Z M-7 11 C-6.67 11.99 -6.34 12.98 -6 14 C-5.67 13.01 -5.34 12.02 -5 11 C-5.66 11 -6.32 11 -7 11 Z " fill="#E22126" transform="translate(148,70)"/>
<path d="M0 0 C0.33 0 0.66 0 1 0 C1.03 1.48 1.05 2.96 1.06 4.44 C1.07 5.26 1.09 6.08 1.1 6.93 C1 9 1 9 0 10 C-0.28 11.37 -0.51 12.76 -0.72 14.15 C-0.85 14.99 -0.97 15.83 -1.11 16.7 C-1.24 17.58 -1.37 18.46 -1.5 19.38 C-1.76 21.11 -2.02 22.85 -2.28 24.59 C-2.4 25.36 -2.51 26.13 -2.63 26.93 C-3 29 -3 29 -4 32 C-4.24 34.4 -4.43 36.78 -4.56 39.19 C-4.6 39.92 -4.65 40.65 -4.69 41.41 C-5.43 56.02 -6.19 71.48 -4 86 C-3.67 86.33 -3.34 86.66 -3 87 C-2.93 89.02 -2.92 91.04 -2.94 93.06 C-2.95 94.17 -2.96 95.27 -2.96 96.41 C-2.98 97.26 -2.99 98.12 -3 99 C-9.57 89.15 -7.4 71.55 -7.38 60.12 C-7.38 59.18 -7.38 58.24 -7.38 57.26 C-7.36 42.15 -6.33 27.78 -3 13 C-2.69 11.54 -2.38 10.08 -2.07 8.61 C-1.43 5.73 -0.75 2.86 0 0 Z " fill="#D73A0A" transform="translate(108,143)"/>
<path d="M0 0 C0.33 0 0.66 0 1 0 C1.11 5.46 0.92 10.62 0 16 C8.11 18.39 13.81 19.64 22 17 C24.59 15.09 24.59 15.09 26 13 C25.34 12.67 24.68 12.34 24 12 C24.33 11.01 24.66 10.02 25 9 C25.78 9.33 26.57 9.66 27.38 10 C29.84 11.12 29.84 11.12 32 11 C32 11.99 32 12.98 32 14 C34.97 14 37.94 14 41 14 C41.5 14.99 41.5 14.99 42 16 C41.24 15.94 40.48 15.88 39.69 15.82 C32.86 15.53 28.94 16.19 23.2 19.81 C15.18 24.16 6.25 21.29 -2 19 C-3.29 14.52 -2.61 11.19 -1.56 6.69 C-1.13 4.81 -1.13 4.81 -0.69 2.89 C-0.46 1.93 -0.24 0.98 0 0 Z " fill="#D41C19" transform="translate(208,127)"/>
<path d="M0 0 C7.38 -0.02 14.76 -0.04 22.15 -0.05 C25.58 -0.06 29 -0.06 32.43 -0.08 C58.69 -0.16 58.69 -0.16 69.56 0.43 C70.26 0.46 70.95 0.5 71.66 0.54 C80.47 1.1 88.01 3.54 95 9 C97 11.31 97 11.31 98 13 C95.26 12.59 93.94 11.95 91.75 10.19 C85.14 4.93 79.75 3.44 71.38 3.88 C69.74 3.94 68.1 4 66.46 4.05 C65.39 4.11 65.39 4.11 64.3 4.16 C62 4 62 4 59.22 3.01 C56.02 2.01 53.52 1.73 50.18 1.68 C49.06 1.66 47.94 1.64 46.78 1.62 C45.59 1.61 44.39 1.6 43.16 1.59 C41.93 1.57 40.7 1.55 39.42 1.53 C35.49 1.47 31.56 1.42 27.62 1.38 C24.95 1.34 22.28 1.3 19.61 1.26 C13.08 1.16 6.54 1.08 0 1 C0 0.67 0 0.34 0 0 Z " fill="#E77438" transform="translate(234,72)"/>
<path d="M0 0 C0.66 0 1.32 0 2 0 C0.93 5.88 -0.43 11.61 -2 17.38 C-7.15 37.53 -6.24 58.36 -6 79 C-6.66 79 -7.32 79 -8 79 C-8.03 72.75 -8.04 66.5 -8.05 60.26 C-8.06 58.13 -8.07 56 -8.08 53.87 C-8.09 50.82 -8.09 47.77 -8.1 44.72 C-8.1 43.77 -8.11 42.81 -8.11 41.82 C-8.11 40.94 -8.11 40.06 -8.11 39.15 C-8.12 38.37 -8.12 37.59 -8.12 36.79 C-8 35 -8 35 -7 34 C-6.79 32 -6.63 30 -6.5 28 C-6.11 22.11 -6.11 22.11 -5 21 C-4.77 19.49 -4.59 17.96 -4.44 16.44 C-4.35 15.61 -4.27 14.78 -4.18 13.93 C-4.12 13.3 -4.06 12.66 -4 12 C-3.34 12 -2.68 12 -2 12 C-2 9.69 -2 7.38 -2 5 C-1.34 5 -0.68 5 0 5 C0 3.35 0 1.7 0 0 Z " fill="#C92E35" transform="translate(129,122)"/>
<path d="M0 0 C0 3 0 3 -2.38 5.49 C-3.43 6.44 -4.49 7.38 -5.56 8.31 C-6.11 8.8 -6.67 9.29 -7.23 9.79 C-8.33 10.76 -9.43 11.73 -10.53 12.69 C-11.73 13.76 -12.91 14.87 -14.07 15.98 C-18.15 19.82 -21.48 21.03 -27 22 C-19.55 12.59 -10.19 6.2 0 0 Z " fill="#9A96A2" transform="translate(197,39)"/>
<path d="M0 0 C3.25 4.87 5.22 9.11 5 15 C2.85 14.69 0.71 14.38 -1.44 14.06 C-2.63 13.89 -3.83 13.71 -5.06 13.54 C-8 13 -8 13 -9 12 C-11.69 11.76 -14.36 11.58 -17.06 11.44 C-17.82 11.39 -18.58 11.35 -19.36 11.31 C-21.24 11.2 -23.12 11.1 -25 11 C-25 11.66 -25 12.32 -25 13 C-27.08 13.53 -29.16 14.05 -31.25 14.56 C-32.41 14.85 -33.57 15.14 -34.77 15.44 C-37.72 15.95 -39.24 16.03 -42 15 C-37.75 12.72 -33.67 11.21 -29 10 C-28.35 9.82 -27.71 9.63 -27.04 9.44 C-24.92 8.98 -23.16 8.94 -20.99 9.05 C-20.23 9.09 -19.48 9.13 -18.7 9.17 C-17.52 9.24 -17.52 9.24 -16.31 9.31 C-15.11 9.38 -15.11 9.38 -13.88 9.45 C-8.41 9.81 -3.29 10.53 2 12 C2 10.68 2 9.36 2 8 C1.34 8 0.68 8 0 8 C0 5.36 0 2.72 0 0 Z " fill="#C53F46" transform="translate(137,259)"/>
<path d="M0 0 C8.25 0 16.5 0 25 0 C25 7.92 25 15.84 25 24 C24.67 24 24.34 24 24 24 C24 16.41 24 8.82 24 1 C16.41 1 8.82 1 1 1 C1.33 4.3 1.66 7.6 2 11 C2.99 11 3.98 11 5 11 C5.08 11.58 5.17 12.16 5.25 12.75 C6.21 15.62 7.78 17 10 19 C9.67 19.99 9.34 20.98 9 22 C7.52 20.71 6.04 19.42 4.56 18.12 C3.74 17.41 2.92 16.69 2.07 15.95 C-0.72 13.32 -0.98 12.56 -1.12 8.69 C-1 5 -1 5 0 0 Z " fill="#DF622D" transform="translate(261,101)"/>
<path d="M0 0 C0.33 0 0.66 0 1 0 C1 3.96 1 7.92 1 12 C4.15 12.03 7.29 12.05 10.44 12.06 C11.34 12.07 12.23 12.08 13.16 12.09 C14.44 12.09 14.44 12.09 15.75 12.1 C16.54 12.1 17.33 12.11 18.14 12.11 C20.02 12.2 20.02 12.2 21 11 C30.67 10.51 40.36 11.24 50 12 C50 12.66 50 13.32 50 14 C42.92 14.05 35.83 14.09 28.75 14.11 C26.34 14.12 23.92 14.13 21.51 14.15 C18.05 14.18 14.59 14.19 11.13 14.2 C10.05 14.21 8.97 14.22 7.85 14.23 C6.85 14.23 5.85 14.23 4.82 14.23 C3.49 14.23 3.49 14.23 2.14 14.24 C0 14 0 14 -2 12 C-1.76 9.18 -1.76 9.18 -1.12 5.88 C-0.92 4.78 -0.72 3.68 -0.51 2.55 C-0.34 1.71 -0.17 0.87 0 0 Z " fill="#ECB32F" transform="translate(32,218)"/>
<path d="M0 0 C0 0.66 0 1.32 0 2 C-0.66 2 -1.32 2 -2 2 C-2 2.66 -2 3.32 -2 4 C-4.97 4.66 -7.94 5.32 -11 6 C-11.33 7.32 -11.66 8.64 -12 10 C-10.68 10 -9.36 10 -8 10 C-8 12.31 -8 14.62 -8 17 C-8.99 17.33 -9.98 17.66 -11 18 C-11 17.34 -11 16.68 -11 16 C-12.65 16 -14.3 16 -16 16 C-15.67 14.35 -15.34 12.7 -15 11 C-17.97 10.5 -17.97 10.5 -21 10 C-17.44 7.04 -13.55 5.23 -9.38 3.31 C-8.69 2.99 -8.01 2.67 -7.31 2.34 C-2.26 0 -2.26 0 0 0 Z " fill="#FABF15" transform="translate(177,35)"/>
<path d="M0 0 C1.55 -0.01 1.55 -0.01 3.13 -0.02 C5.88 0.25 5.88 0.25 8.88 2.25 C7.91 2.3 6.95 2.35 5.95 2.4 C4.69 2.47 3.43 2.55 2.12 2.62 C0.25 2.73 0.25 2.73 -1.67 2.84 C-5.81 3.17 -5.81 3.17 -9.12 5.25 C-10.21 8.06 -10.79 10.93 -11.38 13.88 C-11.55 14.68 -11.72 15.48 -11.9 16.3 C-12.32 18.28 -12.73 20.27 -13.12 22.25 C-7.84 22.58 -2.56 22.91 2.88 23.25 C2.88 23.58 2.88 23.91 2.88 24.25 C-3.06 24.25 -9 24.25 -15.12 24.25 C-14.79 20.29 -14.47 16.33 -14.12 12.25 C-13.47 12.25 -12.81 12.25 -12.12 12.25 C-12.15 11.16 -12.17 10.06 -12.19 8.94 C-12.12 5.25 -12.12 5.25 -11.12 2.25 C-7.41 0.25 -4.17 -0.02 0 0 Z " fill="#DF3A1D" transform="translate(249.125,94.75)"/>
<path d="M0 0 C0.33 0 0.66 0 1 0 C0.67 5.61 0.34 11.22 0 17 C-1.32 17 -2.64 17 -4 17 C-4.27 17.6 -4.53 18.21 -4.8 18.83 C-5.16 19.63 -5.51 20.43 -5.88 21.25 C-6.22 22.04 -6.57 22.83 -6.93 23.64 C-7.9 25.79 -8.93 27.9 -10 30 C-12.15 23.97 -8.64 17.58 -6.12 12.08 C-4.17 8 -2.1 3.99 0 0 Z " fill="#333539" transform="translate(162,83)"/>
<path d="M0 0 C3.72 1.37 4.78 1.88 6.56 5.31 C5.98 7.89 5.98 7.89 4.75 10.56 C4.35 11.45 3.95 12.35 3.54 13.27 C3.22 13.94 2.9 14.62 2.56 15.31 C-4.35 8.64 -4.35 8.64 -4.62 4.56 C-4.56 3.82 -4.5 3.08 -4.44 2.31 C-5.1 2.31 -5.76 2.31 -6.44 2.31 C-4.73 -1.1 -3.71 -0.74 0 0 Z M-3.44 1.31 C-3.11 1.97 -2.78 2.63 -2.44 3.31 C-2.11 2.65 -1.78 1.99 -1.44 1.31 C-2.1 1.31 -2.76 1.31 -3.44 1.31 Z " fill="#FB630D" transform="translate(282.4375,123.6875)"/>
<path d="M0 0 C0.33 0 0.66 0 1 0 C1 2.64 1 5.28 1 8 C0.34 8 -0.32 8 -1 8 C-0.99 8.61 -0.98 9.23 -0.96 9.86 C-0.96 10.67 -0.95 11.48 -0.94 12.31 C-0.93 13.11 -0.91 13.91 -0.9 14.74 C-1 17 -1 17 -2 20 C-2.11 21.58 -2.18 23.16 -2.21 24.75 C-2.23 25.71 -2.25 26.67 -2.27 27.66 C-2.28 28.69 -2.3 29.73 -2.32 30.79 C-2.34 31.85 -2.36 32.92 -2.38 34.01 C-2.44 37.4 -2.5 40.79 -2.56 44.19 C-2.61 46.49 -2.65 48.79 -2.69 51.08 C-2.8 56.72 -2.9 62.36 -3 68 C-3.33 68 -3.66 68 -4 68 C-4.1 60.89 -4.17 53.78 -4.22 46.66 C-4.24 44.25 -4.27 41.84 -4.3 39.42 C-4.5 25.7 -4.45 13.1 0 0 Z " fill="#9D9CA9" transform="translate(128,132)"/>
<path d="M0 0 C0.33 0 0.66 0 1 0 C3.17 13.03 1.78 25.93 -6 37 C-8.31 39.56 -8.31 39.56 -10 41 C-10.4 37.48 -10.13 36.2 -8.12 33.19 C-7.42 32.47 -6.72 31.74 -6 31 C-5.34 31 -4.68 31 -4 31 C-4 29.35 -4 27.7 -4 26 C-3.34 26 -2.68 26 -2 26 C-2 24.02 -2 22.04 -2 20 C-1.34 20 -0.68 20 0 20 C0 13.4 0 6.8 0 0 Z " fill="#E16C2D" transform="translate(285,151)"/>
<path d="M0 0 C2.63 0.36 3.73 0.67 5.45 2.75 C8.5 8.3 9.7 12.66 10 19 C9.34 19 8.68 19 8 19 C7.01 16.03 6.02 13.06 5 10 C4.22 9.92 3.43 9.84 2.62 9.75 C0 9 0 9 -1.44 7.25 C-2.19 4.25 -1.36 2.71 0 0 Z " fill="#ECA830" transform="translate(330,85)"/>
<path d="M0 0 C1.32 0 2.64 0 4 0 C4 0.66 4 1.32 4 2 C4.66 2.33 5.32 2.66 6 3 C6 3.66 6 4.32 6 5 C6.66 5.33 7.32 5.66 8 6 C8 6.66 8 7.32 8 8 C8.66 8 9.32 8 10 8 C10.33 8.99 10.66 9.98 11 11 C3.64 11 0.04 7.02 -5 2 C-4.36 1.86 -3.72 1.71 -3.06 1.56 C-1.02 1.19 -1.02 1.19 0 0 Z " fill="#F12E0E" transform="translate(210,192)"/>
<path d="M0 0 C2 1 2 1 2.7 2.9 C2.91 3.72 3.11 4.53 3.32 5.37 C3.55 6.25 3.77 7.14 4 8.05 C4.34 9.45 4.34 9.45 4.69 10.88 C5.04 12.26 5.04 12.26 5.41 13.68 C5.63 14.56 5.85 15.45 6.07 16.37 C6.28 17.18 6.48 18 6.69 18.84 C7 21 7 21 6 24 C5 22.67 4 21.33 3 20 C2.49 19.45 1.97 18.9 1.44 18.34 C-0.55 15.11 -0.6 12 -0.75 8.31 C-0.79 7.62 -0.84 6.93 -0.88 6.22 C-0.97 4.49 -0.99 2.74 -1 1 C-0.67 0.67 -0.34 0.34 0 0 Z " fill="#5C5A5B" transform="translate(161,128)"/>
<path d="M0 0 C1.32 0.33 2.64 0.66 4 1 C-5.7 7.91 -17.99 11.77 -30 10 C-33.12 8.5 -33.12 8.5 -35 7 C-32 7 -32 7 -29 8 C-23.68 8.6 -23.68 8.6 -19 6.5 C-18.67 6 -18.34 5.51 -18 5 C-18 5.66 -18 6.32 -18 7 C-16.82 6.72 -16.82 6.72 -15.62 6.44 C-13 6 -13 6 -11 7 C-11 6.34 -11 5.68 -11 5 C-7.38 3.68 -4.9 3 -1 3 C-0.67 2.01 -0.34 1.02 0 0 Z " fill="#DF8033" transform="translate(324,140)"/>
<path d="M0 0 C2.12 0.94 2.12 0.94 4 2 C3.34 2.66 2.68 3.32 2 4 C-0.62 3.62 -0.62 3.62 -3 3 C-3.66 5.31 -4.32 7.62 -5 10 C-7.47 9.01 -7.47 9.01 -10 8 C-10.23 8.8 -10.45 9.61 -10.69 10.44 C-11.34 11.71 -11.34 11.71 -12 13 C-14.31 13.69 -14.31 13.69 -17 14 C-18.68 14.63 -20.35 15.29 -22 16 C-18.15 11.86 -14.04 8.82 -9.31 5.75 C-8.64 5.3 -7.96 4.86 -7.26 4.4 C-2.37 1.19 -2.37 1.19 0 0 Z " fill="#F0C22E" transform="translate(147,49)"/>
<path d="M0 0 C0.78 0.33 1.57 0.66 2.38 1 C4.84 2.12 4.84 2.12 7 2 C7 2.99 7 3.98 7 5 C9.97 5 12.94 5 16 5 C16.33 5.66 16.66 6.32 17 7 C16.21 6.95 15.43 6.91 14.62 6.86 C7.67 6.42 7.67 6.42 1.44 9 C-3.37 11.8 -7.57 11.35 -13 11 C-13 10.67 -13 10.34 -13 10 C-11.99 9.85 -11.99 9.85 -10.95 9.7 C-4.04 8.63 -4.04 8.63 1 4 C0.34 3.67 -0.32 3.34 -1 3 C-0.67 2.01 -0.34 1.02 0 0 Z " fill="#EB2C12" transform="translate(233,136)"/>
<path d="M0 0 C3.92 -0.09 7.83 -0.14 11.75 -0.19 C12.86 -0.21 13.97 -0.24 15.12 -0.26 C16.19 -0.27 17.26 -0.28 18.36 -0.29 C19.34 -0.31 20.33 -0.32 21.34 -0.34 C24.39 0.05 25.74 0.97 28 3 C24.36 4.26 21.75 3.63 18 3 C15.21 2.75 12.42 2.59 9.62 2.44 C8.89 2.39 8.15 2.35 7.39 2.31 C5.6 2.2 3.8 2.1 2 2 C2 3.98 2 5.96 2 8 C-0.15 4.77 -0.2 3.72 0 0 Z " fill="#D03227" transform="translate(195,171)"/>
<path d="M0 0 C0.33 0 0.66 0 1 0 C1 2.64 1 5.28 1 8 C-0.98 8.99 -0.98 8.99 -3 10 C-3 10.93 -3 11.86 -3 12.81 C-3 14.88 -3 16.94 -3 19 C-3.66 19 -4.32 19 -5 19 C-5 19.66 -5 20.32 -5 21 C-5.66 21 -6.32 21 -7 21 C-7.12 21.8 -7.25 22.61 -7.38 23.44 C-7.68 24.71 -7.68 24.71 -8 26 C-8.66 26.33 -9.32 26.66 -10 27 C-7.59 17.64 -3.76 8.87 0 0 Z M0 13 C0.33 13.99 0.66 14.98 1 16 C0.01 16 -0.98 16 -2 16 C-1.34 15.01 -0.68 14.02 0 13 Z " fill="#F0C130" transform="translate(54,155)"/>
<path d="M0 0 C1.65 0.33 3.3 0.66 5 1 C5.12 4.38 5.12 4.38 5 8 C2.61 10.39 1.23 10.35 -2 11 C-2.66 11.66 -3.32 12.32 -4 13 C-4 8.29 -3.36 5.36 0 2 C0 1.34 0 0.68 0 0 Z " fill="#F79B18" transform="translate(326,130)"/>
<path d="M0 0 C-6.27 3.3 -12.54 6.6 -19 10 C-19.99 9.34 -20.98 8.68 -22 8 C-22 7.34 -22 6.68 -22 6 C-3.85 -1.93 -3.85 -1.93 0 0 Z " fill="#D03122" transform="translate(218,30)"/>
<path d="M0 0 C4.62 0 9.24 0 14 0 C14 0.33 14 0.66 14 1 C9.71 1 5.42 1 1 1 C1 2.98 1 4.96 1 7 C1.66 7 2.32 7 3 7 C2.34 8.65 1.68 10.3 1 12 C1.99 11.67 2.98 11.34 4 11 C4 11.99 4 12.98 4 14 C2.35 14.33 0.7 14.66 -1 15 C-1 15.99 -1 16.98 -1 18 C-1.66 18 -2.32 18 -3 18 C-2.41 11.84 -1.43 6.02 0 0 Z " fill="#E52419" transform="translate(220,72)"/>
<path d="M0 0 C-0.33 0.66 -0.66 1.32 -1 2 C-2.86 2.5 -2.86 2.5 -5.25 2.85 C-6.11 2.98 -6.96 3.11 -7.84 3.24 C-8.74 3.37 -9.64 3.49 -10.56 3.62 C-11.46 3.76 -12.37 3.89 -13.29 4.03 C-15.53 4.36 -17.76 4.68 -20 5 C-20 4.01 -20 3.02 -20 2 C-21.65 2 -23.3 2 -25 2 C-25 1.67 -25 1.34 -25 1 C-16.65 0.05 -8.4 -0.11 0 0 Z " fill="#ECC03C" transform="translate(243,23)"/>
<path d="M0 0 C0.33 0 0.66 0 1 0 C1.33 5.94 1.66 11.88 2 18 C-1.81 16.47 -4.86 14.99 -8.31 12.88 C-9.2 12.34 -10.08 11.8 -10.99 11.24 C-11.65 10.83 -12.32 10.42 -13 10 C-9.05 8.81 -6.79 9.23 -3 11 C-2.12 13.12 -2.12 13.12 -2 15 C-1.34 15 -0.68 15 0 15 C0 10.05 0 5.1 0 0 Z " fill="#FEAC28" transform="translate(101,224)"/>
<path d="M0 0 C1.23 3.69 0.64 6.21 0 10 C-0.66 10 -1.32 10 -2 10 C-2.33 14.29 -2.66 18.58 -3 23 C-5 21 -5 21 -5.06 18.5 C-5.04 17.67 -5.02 16.85 -5 16 C-5.33 15.34 -5.66 14.68 -6 14 C-5.5 12.91 -5.01 11.81 -4.5 10.69 C-2.99 6.97 -2.77 5.7 -4 2 C-2.68 1.34 -1.36 0.68 0 0 Z M-2 4 C-1 7 -1 7 -1 7 Z " fill="#FB2406" transform="translate(237,97)"/>
<path d="M0 0 C2.66 3.87 1.97 7.69 1.56 12.12 C1.06 18.59 1.08 24.56 2 31 C1.34 31.33 0.68 31.66 0 32 C-1.12 25.72 -1.15 19.56 -1.12 13.19 C-1.13 12.14 -1.13 11.09 -1.14 10.01 C-1.14 9.01 -1.13 8.01 -1.13 6.98 C-1.13 6.07 -1.13 5.16 -1.13 4.23 C-1 2 -1 2 0 0 Z " fill="#333B40" transform="translate(150,114)"/>
<path d="M0 0 C0.93 3.01 1.04 3.87 0 7 C0.66 7 1.32 7 2 7 C1.67 8.65 1.34 10.3 1 12 C-0.98 12.66 -2.96 13.32 -5 14 C-4.67 10.37 -4.34 6.74 -4 3 C-3.01 3 -2.02 3 -1 3 C-0.67 2.01 -0.34 1.02 0 0 Z " fill="#ED100C" transform="translate(214,115)"/>
<path d="M0 0 C0 0.66 0 1.32 0 2 C-2.04 2.34 -4.08 2.67 -6.12 3 C-7.26 3.19 -8.4 3.37 -9.57 3.56 C-12.76 3.97 -15.79 4.08 -19 4 C-19.66 5.32 -20.32 6.64 -21 8 C-21 7.34 -21 6.68 -21 6 C-24.63 6.33 -28.26 6.66 -32 7 C-27.72 4.15 -23.22 3.49 -18.25 2.38 C-16.78 2.03 -16.78 2.03 -15.29 1.68 C-10.07 0.5 -5.35 -0.28 0 0 Z " fill="#EFC23F" transform="translate(218,25)"/>
<path d="M0 0 C13.82 -0.55 13.82 -0.55 19 3 C19 3.33 19 3.66 19 4 C12.38 5.12 12.38 5.12 9 4 C8.01 4.06 7.02 4.12 6 4.19 C5.01 4.13 4.02 4.06 3 4 C1.31 1.99 1.31 1.99 0 0 Z " fill="#F88813" transform="translate(302,75)"/>
<path d="M0 0 C-2.73 10.16 -2.73 10.16 -7 13 C-8.38 10.44 -8.38 10.44 -9 7 C-6.81 3.09 -4.63 0 0 0 Z " fill="#E62022" transform="translate(156,66)"/>
<path d="M0 0 C2 1 2 1 2 1 Z M-2 0 C0.12 1.12 0.12 1.12 2 3 C2.37 4.66 2.71 6.33 3 8 C3.98 9.02 4.98 10.02 6 11 C6.38 12.32 6.71 13.66 7 15 C2.49 11.33 -1.5 7.66 -5 3 C-5 2.34 -5 1.68 -5 1 C-4.01 0.67 -3.02 0.34 -2 0 Z " fill="#E0E7EA" transform="translate(197,240)"/>
<path d="M0 0 C0.33 0 0.66 0 1 0 C1.33 2.31 1.66 4.62 2 7 C1.34 7 0.68 7 0 7 C0 8.65 0 10.3 0 12 C-0.99 12.33 -1.98 12.66 -3 13 C-3.73 15.02 -3.73 15.02 -4 17 C-4.66 17 -5.32 17 -6 17 C-5.36 10.76 -2.77 5.54 0 0 Z " fill="#A48F99" transform="translate(138,105)"/>
<path d="M0 0 C0.66 0 1.32 0 2 0 C2.06 0.93 2.12 1.85 2.18 2.81 C2.27 4.01 2.35 5.2 2.44 6.44 C2.52 7.63 2.6 8.83 2.68 10.06 C2.68 12.89 2.68 12.89 4 14 C4.07 16.02 4.08 18.04 4.06 20.06 C4.05 21.17 4.04 22.27 4.04 23.41 C4.02 24.26 4.01 25.12 4 26 C1.63 22.45 1.41 20.03 0.88 15.81 C0.79 15.14 0.71 14.47 0.62 13.78 C0.06 9.14 -0.19 4.66 0 0 Z " fill="#DD3E11" transform="translate(101,216)"/>
<path d="M0 0 C4 0 4 0 8 2 C5.03 4.31 2.06 6.62 -1 9 C-1.33 7.68 -1.66 6.36 -2 5 C-2.33 4.01 -2.66 3.02 -3 2 C-2.01 2 -1.02 2 0 2 C0 1.34 0 0.68 0 0 Z " fill="#FDBA16" transform="translate(158,52)"/>
<path d="M0 0 C1.32 0 2.64 0 4 0 C5.82 4.2 6.49 6.53 5 11 C2.36 8.36 -0.28 5.72 -3 3 C-2.01 2.01 -1.02 1.02 0 0 Z " fill="#EAEEEF" transform="translate(210,256)"/>
<path d="M0 0 C-1 2.24 -1.84 3.85 -3.62 5.56 C-5.35 7.03 -5.35 7.03 -5 10 C-5.99 10 -6.98 10 -8 10 C-8.33 10.66 -8.66 11.32 -9 12 C-9.66 10.35 -10.32 8.7 -11 7 C-9.55 5.83 -8.09 4.66 -6.62 3.5 C-5.41 2.53 -5.41 2.53 -4.16 1.53 C-2 0 -2 0 0 0 Z " fill="#BCC5C7" transform="translate(220,294)"/>
<path d="M0 0 C1.59 3.18 0.78 5.62 0 9 C-2.06 10.44 -2.06 10.44 -4 11 C-3.67 11.99 -3.34 12.98 -3 14 C-3.99 14.33 -4.98 14.66 -6 15 C-6 15.99 -6 16.98 -6 18 C-6.66 18 -7.32 18 -8 18 C-6.52 11.35 -3.38 5.88 0 0 Z " fill="#AA8B9A" transform="translate(147,87)"/>
<path d="M0 0 C1 2 1 2 0.88 4.5 C0.44 5.74 0.44 5.74 0 7 C-1.67 7.67 -3.33 8.33 -5 9 C-5.89 11.55 -5.89 11.55 -6 14 C-6.99 14 -7.98 14 -9 14 C-9.66 15.32 -10.32 16.64 -11 18 C-11 14.04 -9.55 12.7 -7.19 9.56 C-6.48 8.62 -5.77 7.67 -5.04 6.69 C-4.03 5.36 -4.03 5.36 -3 4 C-2 2.67 -1 1.33 0 0 Z " fill="#EEC132" transform="translate(86,103)"/>
<path d="M0 0 C0.66 0 1.32 0 2 0 C1.42 8.42 0.38 16.68 -1 25 C-1.33 25 -1.66 25 -2 25 C-2.03 22.35 -2.05 19.71 -2.06 17.06 C-2.07 16.31 -2.08 15.55 -2.09 14.78 C-2.1 12.85 -2.05 10.92 -2 9 C-1.67 8.67 -1.34 8.34 -1 8 C-0.77 6.65 -0.59 5.3 -0.44 3.94 C-0.29 2.64 -0.15 1.34 0 0 Z " fill="#FDAA27" transform="translate(103,156)"/>
<path d="M0 0 C5.57 -0.37 5.57 -0.37 7.75 1.5 C8.37 2.24 8.37 2.24 9 3 C9.66 3 10.32 3 11 3 C11.66 2.34 12.32 1.68 13 1 C12.44 4.24 11.59 5.93 9 8 C8.34 8 7.68 8 7 8 C5.72 6.52 4.43 5.04 3.22 3.51 C1.93 1.86 1.93 1.86 0 0 Z " fill="#ED4719" transform="translate(250,143)"/>
<path d="M0 0 C0.66 0.33 1.32 0.66 2 1 C1.53 1.77 1.06 2.55 0.57 3.34 C-2.88 9.12 -5.91 14.6 -8 21 C-8.33 21 -8.66 21 -9 21 C-9 19.02 -9 17.04 -9 15 C-8.34 15 -7.68 15 -7 15 C-7.04 14.24 -7.08 13.47 -7.12 12.69 C-7 10 -7 10 -5 7 C-4.34 7 -3.68 7 -3 7 C-2.69 6.03 -2.38 5.06 -2.06 4.06 C-1 1 -1 1 0 0 Z " fill="#C73338" transform="translate(146,86)"/>
<path d="M0 0 C1.24 0.5 1.24 0.5 2.5 1 C9.49 3 15.18 1.95 22 0 C20.36 2.59 19.68 3.63 17 5 C12.27 5.15 7.68 4.64 3 4 C3 3.34 3 2.68 3 2 C2.01 2 1.02 2 0 2 C0 1.34 0 0.68 0 0 Z " fill="#E6852B" transform="translate(230,181)"/>
<path d="M0 0 C-0.76 1.17 -1.53 2.34 -2.31 3.5 C-2.74 4.15 -3.17 4.8 -3.61 5.47 C-4.07 5.97 -4.53 6.48 -5 7 C-5.99 7 -6.98 7 -8 7 C-8 6.34 -8 5.68 -8 5 C-8.66 4.67 -9.32 4.34 -10 4 C-4.77 -1.59 -4.77 -1.59 0 0 Z " fill="#879EA4" transform="translate(179,59)"/>
<path d="M0 0 C0.33 0 0.66 0 1 0 C1 2.64 1 5.28 1 8 C0.34 8 -0.32 8 -1 8 C-0.98 8.57 -0.95 9.14 -0.93 9.72 C-0.81 14.93 -1.32 19.07 -3 24 C-3.33 24 -3.66 24 -4 24 C-4.21 18.11 -3.55 13.17 -2 7.5 C-1.81 6.77 -1.62 6.05 -1.42 5.3 C-0.96 3.53 -0.48 1.76 0 0 Z " fill="#AC8894" transform="translate(128,132)"/>
<path d="M0 0 C0.33 0 0.66 0 1 0 C1.39 2.66 1.41 4.39 -0.11 6.67 C-1.36 8.15 -2.68 9.58 -4 11 C-5.38 8.73 -6.06 7.5 -5.75 4.81 C-5 3 -5 3 -3 2 C-2.34 2.33 -1.68 2.66 -1 3 C-0.67 2.01 -0.34 1.02 0 0 Z " fill="#F3A925" transform="translate(336,126)"/>
<path d="M0 0 C1.89 0.01 1.89 0.01 3.83 0.03 C4.79 0.04 5.76 0.05 6.75 0.06 C6.42 0.72 6.09 1.38 5.75 2.06 C4.78 2.02 3.81 1.98 2.81 1.94 C-1.7 1.92 -5.9 2.96 -10.25 4.06 C-10.58 3.07 -10.91 2.08 -11.25 1.06 C-7.5 -0.14 -3.92 -0.04 0 0 Z " fill="#E77C2E" transform="translate(297.25,123.9375)"/>
<path d="M0 0 C0.33 0.66 0.66 1.32 1 2 C0.02 3.77 -0.97 5.53 -2.03 7.25 C-3.14 9.01 -3.14 9.01 -3.38 11.31 C-3.58 11.87 -3.79 12.43 -4 13 C-7.06 14.25 -7.06 14.25 -10 15 C-8.6 10.9 -6.63 8.02 -3.88 4.69 C-3.15 3.8 -2.43 2.92 -1.68 2.01 C-1.13 1.35 -0.57 0.68 0 0 Z " fill="#A78E99" transform="translate(158,72)"/>
<path d="M0 0 C3.96 0.33 7.92 0.66 12 1 C9.81 3.19 8.89 3.28 6 4 C5.34 4.66 4.68 5.32 4 6 C1.74 5.65 0.05 5.02 -2 4 C-1.34 2.68 -0.68 1.36 0 0 Z " fill="#FBC20C" transform="translate(166,41)"/>
<path d="M0 0 C-1.56 4.67 -4.08 8.09 -7 12 C-7.66 11.01 -8.32 10.02 -9 9 C-6 0 -6 0 0 0 Z " fill="#878787" transform="translate(258,289)"/>
<path d="M0 0 C0.66 0 1.32 0 2 0 C2 0.66 2 1.32 2 2 C2.99 1.67 3.98 1.34 5 1 C7 5.12 7.18 8.45 7 13 C0 4.79 0 4.79 0 0 Z " fill="#959A9D" transform="translate(168,204)"/>
<path d="M0 0 C1.99 2.99 2.94 5.6 4 9 C0.23 10.26 -1.37 9.37 -5 8 C-3.62 6 -3.62 6 -2 4 C-1.34 4 -0.68 4 0 4 C0 2.68 0 1.36 0 0 Z " fill="#7B797A" transform="translate(173,165)"/>
<path d="M0 0 C2.65 1.32 2.74 2.43 3.69 5.19 C4.95 9.14 5.15 11.93 4 16 C0.44 12.44 0.05 7.35 -0.12 2.5 C-0.08 1.68 -0.04 0.85 0 0 Z " fill="#5A6467" transform="translate(154,164)"/>
<path d="M0 0 C0.66 0 1.32 0 2 0 C4 3 4 3 4 6 C5.05 5.92 6.1 5.84 7.19 5.75 C11.54 6.04 12.93 7.02 16 10 C14.58 9.88 13.17 9.76 11.75 9.62 C10.57 9.52 10.57 9.52 9.36 9.41 C6.87 8.98 5.15 8.33 3 7 C0 2.71 0 2.71 0 0 Z " fill="#F97314" transform="translate(285,139)"/>
<path d="M0 0 C1.65 0.33 3.3 0.66 5 1 C4.67 2.65 4.34 4.3 4 6 C2.02 6.33 0.04 6.66 -2 7 C-2.33 5.68 -2.66 4.36 -3 3 C-2.01 3 -1.02 3 0 3 C0 2.01 0 1.02 0 0 Z " fill="#FB1204" transform="translate(219,87)"/>
<path d="M0 0 C0.66 0.33 1.32 0.66 2 1 C1.55 1.41 1.09 1.83 0.62 2.25 C-1.08 3.89 -1.08 3.89 -1.81 5.94 C-3.54 8.94 -6.08 10.22 -9 12 C-9.66 11.34 -10.32 10.68 -11 10 C-5.56 5.05 -5.56 5.05 0 0 Z " fill="#EEC332" transform="translate(123,65)"/>
<path d="M0 0 C2.03 3.05 2.25 3.6 2.2 7.01 C2.19 7.77 2.18 8.53 2.18 9.31 C2.16 10.09 2.14 10.88 2.12 11.69 C2.12 12.48 2.11 13.28 2.1 14.1 C2.07 16.07 2.04 18.03 2 20 C-0.15 16.77 -0.2 15.72 0 12 C-0.66 12 -1.32 12 -2 12 C-1.67 11.13 -1.34 10.27 -1 9.38 C-0.01 6.04 0.16 3.45 0 0 Z " fill="#F1681B" transform="translate(283,144)"/>
<path d="M0 0 C7.24 2.12 13.73 4.35 18 11 C14.07 10.42 12.06 8.45 9 6 C6.04 4.25 3.03 2.61 0 1 C0 0.67 0 0.34 0 0 Z " fill="#E69B3B" transform="translate(314,74)"/>
<path d="M0 0 C0.33 0 0.66 0 1 0 C1.48 2.37 1.96 4.75 2.44 7.12 C2.57 7.79 2.71 8.46 2.85 9.14 C3.64 13.08 4.36 17.03 5 21 C1.62 18.39 0.63 15.07 0 11 C-0.15 7.33 -0.12 3.67 0 0 Z " fill="#C3383E" transform="translate(125,216)"/>
<path d="M0 0 C0.33 1.32 0.66 2.64 1 4 C0.34 4 -0.32 4 -1 4 C-2 7.58 -2 7.58 -1 11 C-1.99 11.33 -2.98 11.66 -4 12 C-4.33 11.01 -4.66 10.02 -5 9 C-5.99 10.48 -5.99 10.48 -7 12 C-7.66 12 -8.32 12 -9 12 C-7.56 8.76 -5.74 6.38 -3.38 3.75 C-2.74 3.04 -2.11 2.34 -1.46 1.61 C-0.98 1.08 -0.5 0.55 0 0 Z " fill="#F2C033" transform="translate(102,84)"/>
<path d="M0 0 C0.66 1.32 1.32 2.64 2 4 C-1.46 6.77 -5.14 8.85 -9 11 C-9 10.01 -9 9.02 -9 8 C-6 6 -6 6 -3 6 C-3 4.68 -3 3.36 -3 2 C-2.01 1.34 -1.02 0.68 0 0 Z " fill="#7A7A7A" transform="translate(272,273)"/>
<path d="M0 0 C0.99 0.33 1.98 0.66 3 1 C-0.3 4.96 -3.6 8.92 -7 13 C-7.66 12.01 -8.32 11.02 -9 10 C-8.01 10 -7.02 10 -6 10 C-6 8.68 -6 7.36 -6 6 C-5.34 6 -4.68 6 -4 6 C-4 5.34 -4 4.68 -4 4 C-3.01 4 -2.02 4 -1 4 C-0.67 2.68 -0.34 1.36 0 0 Z " fill="#FEAC25" transform="translate(145,70)"/>
<path d="M0 0 C0 3 0 3 -1.75 4.82 C-2.49 5.44 -3.24 6.05 -4 6.69 C-4.74 7.31 -5.49 7.93 -6.25 8.57 C-6.83 9.04 -7.41 9.52 -8 10 C-9.32 9.34 -10.64 8.68 -12 8 C-8.04 5.36 -4.08 2.72 0 0 Z " fill="#A87D89" transform="translate(197,39)"/>
<path d="M0 0 C1.32 0 2.64 0 4 0 C2.73 2.84 1.55 5.14 -1 7 C-3.19 6.69 -3.19 6.69 -5 6 C-5 5.01 -5 4.02 -5 3 C-3.68 3 -2.36 3 -1 3 C-0.67 2.01 -0.34 1.02 0 0 Z " fill="#999999" transform="translate(234,320)"/>
<path d="M0 0 C4.86 2.58 9.17 6.05 13 10 C13 10.66 13 11.32 13 12 C8.1 10.6 6.1 7.92 3 4 C2.01 3.34 1.02 2.68 0 2 C0 1.34 0 0.68 0 0 Z " fill="#D3D3D3" transform="translate(225,236)"/>
<path d="M0 0 C1.32 0.33 2.64 0.66 4 1 C2.45 2.01 0.88 3.01 -0.69 4 C-1.99 4.84 -1.99 4.84 -3.32 5.69 C-6.17 7.08 -7.88 7.27 -11 7 C-11 6.34 -11 5.68 -11 5 C-7.38 3.68 -4.9 3 -1 3 C-0.67 2.01 -0.34 1.02 0 0 Z " fill="#E89638" transform="translate(324,140)"/>
<path d="M0 0 C0.66 0.33 1.32 0.66 2 1 C2.63 3.72 2.63 3.72 3.12 7.06 C3.29 8.17 3.46 9.27 3.63 10.41 C3.75 11.26 3.88 12.12 4 13 C0.18 10.63 0.18 10.63 -0.64 7.77 C-0.7 6.98 -0.76 6.19 -0.81 5.38 C-0.88 4.58 -0.95 3.78 -1.02 2.96 C-1 1 -1 1 0 0 Z " fill="#504E4F" transform="translate(161,128)"/>
<path d="M0 0 C0 0.99 0 1.98 0 3 C-0.99 3.33 -1.98 3.66 -3 4 C-3.33 4.83 -3.66 5.65 -4 6.5 C-4.33 7.33 -4.66 8.15 -5 9 C-5.99 9.33 -6.98 9.66 -8 10 C-8.99 11.48 -8.99 11.48 -10 13 C-10.66 12.67 -11.32 12.34 -12 12 C-10.75 10.56 -9.5 9.12 -8.25 7.69 C-7.55 6.89 -6.86 6.09 -6.14 5.26 C-4.21 3.22 -2.3 1.6 0 0 Z " fill="#D93810" transform="translate(161,57)"/>
<path d="M0 0 C1.45 0.03 1.45 0.03 2.94 0.06 C1.95 1.55 1.95 1.55 0.94 3.06 C0.94 3.72 0.94 4.38 0.94 5.06 C-3.81 6.19 -3.81 6.19 -6.06 5.06 C-3.65 0.07 -3.65 0.07 0 0 Z " fill="#E42024" transform="translate(170.0625,53.9375)"/>
<path d="M0 0 C0.99 0 1.98 0 3 0 C5.19 3 5.19 3 7 6 C6.67 6.66 6.34 7.32 6 8 C5.34 8 4.68 8 4 8 C4 7.01 4 6.02 4 5 C2.68 5.33 1.36 5.66 0 6 C0 4.02 0 2.04 0 0 Z " fill="#C1C4C1" transform="translate(192,202)"/>
<path d="M0 0 C1.65 0.33 3.3 0.66 5 1 C5 2.32 5 3.64 5 5 C5.66 5.33 6.32 5.66 7 6 C5.68 6.33 4.36 6.66 3 7 C1.68 5.35 0.36 3.7 -1 2 C-0.67 1.34 -0.34 0.68 0 0 Z " fill="#D4D9DC" transform="translate(217,265)"/>
<path d="M0 0 C0.66 0.33 1.32 0.66 2 1 C1.34 2.32 0.68 3.64 0 5 C1.32 5.66 2.64 6.32 4 7 C-0.56 6.56 -3.58 6.15 -7 3 C-4.7 1.93 -2.36 0.94 0 0 Z " fill="#E6521B" transform="translate(225,200)"/>
<path d="M0 0 C1.65 0 3.3 0 5 0 C1.11 3.18 -2.9 6.11 -7 9 C-7.33 8.01 -7.66 7.02 -8 6 C-7.36 5.71 -6.72 5.42 -6.06 5.12 C-3.85 4.17 -3.85 4.17 -3 2 C-2.01 2 -1.02 2 0 2 C0 1.34 0 0.68 0 0 Z " fill="#CD2D33" transform="translate(183,45)"/>
<path d="M0 0 C0.66 0.33 1.32 0.66 2 1 C2 1.99 2 2.98 2 4 C-1.63 4 -5.26 4 -9 4 C-9 3.34 -9 2.68 -9 2 C-9.99 1.67 -10.98 1.34 -12 1 C-10.56 1.14 -9.12 1.29 -7.69 1.44 C-6.89 1.52 -6.09 1.6 -5.26 1.68 C-3 2 -3 2 0 3 C0 2.01 0 1.02 0 0 Z " fill="#A78C94" transform="translate(142,271)"/>
<path d="M0 0 C0.33 0.99 0.66 1.98 1 3 C0.67 3.66 0.34 4.32 0 5 C-2.89 4.6 -3.82 4.21 -5.75 1.94 C-6.16 1.3 -6.57 0.66 -7 0 C-4.33 -1.33 -2.83 -0.67 0 0 Z " fill="#C2C4C8" transform="translate(231,274)"/>
<path d="M0 0 C3.46 1.49 3.46 1.49 7 3 C4.06 4.52 1.08 5.8 -2 7 C-1.34 4.69 -0.68 2.38 0 0 Z M-3 7 C-2.34 7.66 -1.68 8.32 -1 9 C-1.66 9 -2.32 9 -3 9 C-3 8.34 -3 7.68 -3 7 Z " fill="#7E7E7E" transform="translate(269,266)"/>
<path d="M0 0 C1.65 0 3.3 0 5 0 C5.33 0.99 5.66 1.98 6 3 C6.66 3.66 7.32 4.32 8 5 C7.34 6.32 6.68 7.64 6 9 C4.02 6.03 2.04 3.06 0 0 Z " fill="#E86321" transform="translate(278,130)"/>
<path d="M0 0 C0.66 0 1.32 0 2 0 C2.66 2.31 3.32 4.62 4 7 C3.34 7 2.68 7 2 7 C2 7.66 2 8.32 2 9 C1.34 9 0.68 9 0 9 C-1.12 7.31 -1.12 7.31 -2 5 C-1.12 2.25 -1.12 2.25 0 0 Z " fill="#FA9F17" transform="translate(330,85)"/>
<path d="M0 0 C1.32 0 2.64 0 4 0 C2.44 3.82 -0.04 6.19 -3 9 C-3 7.35 -3 5.7 -3 4 C-2.34 3.67 -1.68 3.34 -1 3 C-0.67 2.01 -0.34 1.02 0 0 Z " fill="#D12C34" transform="translate(153,73)"/>
<path d="M0 0 C1.32 0.33 2.64 0.66 4 1 C2.51 4.8 0.24 6.61 -3 9 C-2.5 5.27 -2.13 3.19 0 0 Z " fill="#D6272E" transform="translate(160,64)"/>
<path d="M0 0 C0.99 0 1.98 0 3 0 C3.33 2.97 3.66 5.94 4 9 C1.5 6.69 1.5 6.69 -1 4 C-1 1 -1 1 0 0 Z " fill="#CBD0D3" transform="translate(188,232)"/>
<path d="M0 0 C0 0.66 0 1.32 0 2 C0.66 2 1.32 2 2 2 C2.33 2.99 2.66 3.98 3 5 C-0.38 4.69 -0.38 4.69 -4 4 C-4.66 3.01 -5.32 2.02 -6 1 C-3 0 -3 0 0 0 Z " fill="#EC3F0E" transform="translate(218,198)"/>
<path d="M0 0 C2.1 4.07 2.17 4.31 1 9 C-0.98 6.69 -2.96 4.38 -5 2 C-3.35 2 -1.7 2 0 2 C0 1.34 0 0.68 0 0 Z " fill="#E95B1D" transform="translate(276,121)"/>
<path d="M0 0 C0 3.81 -1.04 5.75 -3 9 C-5.69 10.88 -5.69 10.88 -8 12 C-6.49 7.02 -3.44 3.76 0 0 Z " fill="#DC340D" transform="translate(143,76)"/>
<path d="M0 0 C-1.12 0.84 -2.25 1.67 -3.38 2.5 C-4.31 3.2 -4.31 3.2 -5.27 3.91 C-7 5 -7 5 -9 5 C-9 3.35 -9 1.7 -9 0 C-5.57 -0.86 -3.38 -0.98 0 0 Z " fill="#FDAE21" transform="translate(178,46)"/>
<path d="M0 0 C0 0.66 0 1.32 0 2 C-0.66 2 -1.32 2 -2 2 C-2 2.66 -2 3.32 -2 4 C-8.96 6.28 -8.96 6.28 -13 5 C-11.21 4.16 -9.42 3.33 -7.62 2.5 C-6.63 2.04 -5.63 1.57 -4.6 1.09 C-2 0 -2 0 0 0 Z " fill="#EFC13D" transform="translate(177,35)"/>
<path d="M0 0 C4.62 0 9.24 0 14 0 C13.67 0.66 13.34 1.32 13 2 C10.82 2.52 10.82 2.52 8.12 2.81 C7.24 2.92 6.36 3.03 5.45 3.14 C3 3 3 3 0 0 Z " fill="#E4C976" transform="translate(229,23)"/>
<path d="M0 0 C3.57 1.88 5.55 3.17 7 7 C6.34 7 5.68 7 5 7 C4.67 7.99 4.34 8.98 4 10 C3.33 8.71 2.66 7.42 2 6.12 C1.63 5.41 1.26 4.69 0.88 3.95 C0 2 0 2 0 0 Z " fill="#2B4E52" transform="translate(159,296)"/>
<path d="M0 0 C-4.31 2.88 -7.81 4 -13 4 C-13 3.34 -13 2.68 -13 2 C-8.5 -0.25 -4.92 -0.17 0 0 Z " fill="#C4292B" transform="translate(88,277)"/>
<path d="M0 0 C3 1 3 1 3.98 2.71 C4.24 3.4 4.49 4.1 4.75 4.81 C5.01 5.5 5.28 6.19 5.55 6.89 C6.06 9.28 5.76 10.71 5 13 C4.16 11.21 3.33 9.42 2.5 7.62 C1.8 6.13 1.8 6.13 1.09 4.6 C0 2 0 2 0 0 Z " fill="#7F868A" transform="translate(162,191)"/>
<path d="M0 0 C0.99 0 1.98 0 3 0 C3 0.99 3 1.98 3 3 C3.99 3.33 4.98 3.66 6 4 C2.49 6.41 0.27 7.37 -4 7 C-1 5 -1 5 1 5 C0.67 3.35 0.34 1.7 0 0 Z " fill="#F89918" transform="translate(249,200)"/>
<path d="M0 0 C0.33 1.32 0.66 2.64 1 4 C0.34 4 -0.32 4 -1 4 C-0.94 5.14 -0.94 5.14 -0.88 6.31 C-1 9 -1 9 -3 12 C-3.66 12 -4.32 12 -5 12 C-4.55 10.56 -4.09 9.12 -3.62 7.69 C-3.24 6.49 -3.24 6.49 -2.85 5.26 C-2 3 -2 3 0 0 Z " fill="#EDC235" transform="translate(60,143)"/>
<path d="M0 0 C0.66 0.33 1.32 0.66 2 1 C2 3.31 2 5.62 2 8 C1.01 8.33 0.02 8.66 -1 9 C-1.1 2.85 -1.1 2.85 -1 1 C-0.67 0.67 -0.34 0.34 0 0 Z " fill="#FA9013" transform="translate(318,104)"/>
<path d="M0 0 C1.57 3.15 0.72 5.64 0 9 C-1.49 9.99 -1.49 9.99 -3 11 C-3.33 6.33 -2.71 3.83 0 0 Z " fill="#A095A1" transform="translate(147,87)"/>
<path d="M0 0 C1.32 0.66 2.64 1.32 4 2 C1.03 4.48 1.03 4.48 -2 7 C-2.33 6.01 -2.66 5.02 -3 4 C-1.56 1.81 -1.56 1.81 0 0 Z " fill="#FCAE21" transform="translate(162,52)"/>
<path d="M0 0 C-1.37 3.16 -1.99 3.99 -5 6 C-5.99 5.34 -6.98 4.68 -8 4 C-2.25 0 -2.25 0 0 0 Z " fill="#C2CACE" transform="translate(220,294)"/>
<path d="M0 0 C0.66 0 1.32 0 2 0 C2.33 0.99 2.66 1.98 3 3 C0.03 5.47 0.03 5.47 -3 8 C-3.66 7.67 -4.32 7.34 -5 7 C-4.04 6.66 -4.04 6.66 -3.06 6.31 C-0.73 5.15 -0.73 5.15 -0.25 2.38 C-0.17 1.59 -0.08 0.81 0 0 Z " fill="#E0571C" transform="translate(269,193)"/>
<path d="M0 0 C1.65 0 3.3 0 5 0 C3.51 3.47 3.51 3.47 2 7 C1.34 6.67 0.68 6.34 0 6 C0 4.02 0 2.04 0 0 Z " fill="#F90902" transform="translate(197,173)"/>
<path d="M0 0 C1.12 3.75 1.12 3.75 0 6 C-0.66 6 -1.32 6 -2 6 C-2 7.32 -2 8.64 -2 10 C-2.99 10 -3.98 10 -5 10 C-3.67 6.41 -2.04 3.25 0 0 Z " fill="#EBC139" transform="translate(69,127)"/>
<path d="M0 0 C0.69 1.69 0.69 1.69 1 4 C-0.38 6.75 -0.38 6.75 -2 9 C-2.33 9 -2.66 9 -3 9 C-3 7.02 -3 5.04 -3 3 C-2.34 3 -1.68 3 -1 3 C-0.67 2.01 -0.34 1.02 0 0 Z " fill="#F90A03" transform="translate(214,115)"/>
<path d="M0 0 C1.98 0.66 3.96 1.32 6 2 C5.01 3.48 5.01 3.48 4 5 C2.68 5 1.36 5 0 5 C0 3.35 0 1.7 0 0 Z " fill="#F76D10" transform="translate(288,73)"/>
<path d="M0 0 C1.09 0.08 2.19 0.17 3.31 0.25 C3.31 0.91 3.31 1.57 3.31 2.25 C2.17 2.16 2.17 2.16 1 2.06 C-1.73 1.99 -1.73 1.99 -3.5 3.75 C-4.09 4.49 -4.09 4.49 -4.69 5.25 C-5.35 4.92 -6.01 4.59 -6.69 4.25 C-4.79 0.68 -4.17 0.28 0 0 Z " fill="#BBBEC3" transform="translate(227.6875,290.75)"/>
<path d="M0 0 C3.8 2.53 4.51 4.75 6 9 C5.67 9.99 5.34 10.98 5 12 C4.16 10.57 3.33 9.13 2.5 7.69 C2.04 6.89 1.57 6.09 1.09 5.26 C0 3 0 3 0 0 Z " fill="#D21814" transform="translate(197,179)"/>
<path d="M0 0 C0.66 0 1.32 0 2 0 C2.66 1.98 3.32 3.96 4 6 C3.01 6.33 2.02 6.66 1 7 C-0.06 4.62 -0.06 4.62 -1 2 C-0.67 1.34 -0.34 0.68 0 0 Z " fill="#929091" transform="translate(177,177)"/>
<path d="M0 0 C5.57 5.14 5.57 5.14 6 9 C5.01 9 4.02 9 3 9 C2.01 6.03 1.02 3.06 0 0 Z " fill="#E46024" transform="translate(275,131)"/>
<path d="M0 0 C2.88 0.69 2.88 0.69 6 2 C7.38 4.62 7.38 4.62 8 7 C4.64 5.56 2.45 3.71 0 1 C0 0.67 0 0.34 0 0 Z " fill="#F94407" transform="translate(256,121)"/>
<path d="M0 0 C0.33 0 0.66 0 1 0 C1.05 1.42 1.09 2.83 1.12 4.25 C1.15 5.04 1.17 5.83 1.2 6.64 C0.98 9.21 0.29 10.79 -1 13 C-2.21 8.06 -1.63 4.79 0 0 Z " fill="#F6A819" transform="translate(338,112)"/>
<path d="M0 0 C0 0.99 0 1.98 0 3 C0.31 5 0.65 7 1 9 C0.01 8.67 -0.98 8.34 -2 8 C-2 7.34 -2 6.68 -2 6 C-2.66 5.67 -3.32 5.34 -4 5 C-2.68 3.35 -1.36 1.7 0 0 Z " fill="#DB2C16" transform="translate(148,70)"/>
<path d="M0 0 C-0.66 1.65 -1.32 3.3 -2 5 C-4.97 4.51 -4.97 4.51 -8 4 C-2.78 0 -2.78 0 0 0 Z " fill="#F3C132" transform="translate(164,41)"/>
<path d="M0 0 C3.63 0 7.26 0 11 0 C11 0.99 11 1.98 11 3 C9.74 2.88 8.48 2.75 7.19 2.62 C6.13 2.52 6.13 2.52 5.04 2.41 C3 2 3 2 0 0 Z " fill="#CA2C32" transform="translate(130,270)"/>
<path d="M0 0 C0 0.33 0 0.66 0 1 C-8.04 3.28 -8.04 3.28 -12 2 C-7.53 -0.66 -5.07 -1.33 0 0 Z " fill="#BE2B30" transform="translate(107,272)"/>
<path d="M0 0 C1.32 0.33 2.64 0.66 4 1 C4.33 3.31 4.66 5.62 5 8 C2.2 5.47 0.54 3.8 0 0 Z " fill="#AEB6BC" transform="translate(178,221)"/>
<path d="M0 0 C3.3 0 6.6 0 10 0 C6.71 1.64 4.52 2.41 1 3 C0.67 2.01 0.34 1.02 0 0 Z " fill="#F07120" transform="translate(286,125)"/>
<path d="M0 0 C0 0.66 0 1.32 0 2 C-0.66 2 -1.32 2 -2 2 C-2 3.65 -2 5.3 -2 7 C-2.66 7 -3.32 7 -4 7 C-4 6.34 -4 5.68 -4 5 C-4.66 4.67 -5.32 4.34 -6 4 C-2.25 0 -2.25 0 0 0 Z " fill="#88A5AF" transform="translate(175,59)"/>
<path d="M0 0 C2.47 0.5 2.47 0.5 5 1 C4.67 2.98 4.34 4.96 4 7 C0 2.25 0 2.25 0 0 Z " fill="#2B4D52" transform="translate(168,313)"/>
<path d="M0 0 C0.66 1.32 1.32 2.64 2 4 C0.68 4.99 -0.64 5.98 -2 7 C-2.33 5.35 -2.66 3.7 -3 2 C-2.01 1.34 -1.02 0.68 0 0 Z " fill="#EEA431" transform="translate(333,130)"/>
<path d="M0 0 C0.33 0 0.66 0 1 0 C1.25 2.81 1.25 2.81 1 6 C-1 7.88 -1 7.88 -3 9 C-2.44 5.66 -1.65 2.97 0 0 Z " fill="#DA310E" transform="translate(120,111)"/>
<path d="M0 0 C0.66 0 1.32 0 2 0 C0.25 5.75 0.25 5.75 -2 8 C-2.69 6.25 -2.69 6.25 -3 4 C-1.69 1.75 -1.69 1.75 0 0 Z " fill="#879FA4" transform="translate(156,91)"/>
<path d="M0 0 C1.32 0.99 2.64 1.98 4 3 C2.35 4.32 0.7 5.64 -1 7 C-2 4 -2 4 -1.06 1.81 C-0.54 0.92 -0.54 0.92 0 0 Z " fill="#D02E34" transform="translate(172,52)"/>
<path d="M0 0 C-6.75 4 -6.75 4 -9 4 C-9 3.01 -9 2.02 -9 1 C-2.25 -1.12 -2.25 -1.12 0 0 Z " fill="#B73F26" transform="translate(218,30)"/>
<path d="M0 0 C1.32 0.66 2.64 1.32 4 2 C2.68 3.32 1.36 4.64 0 6 C-0.66 5.01 -1.32 4.02 -2 3 C-1.34 2.01 -0.68 1.02 0 0 Z " fill="#868686" transform="translate(259,282)"/>
<path d="M0 0 C6.05 -0.2 6.05 -0.2 8 0 C8.66 0.66 9.32 1.32 10 2 C6.42 3.24 3.66 2.75 0 2 C0 1.34 0 0.68 0 0 Z " fill="#E7471B" transform="translate(213,172)"/>
<path d="M0 0 C0.66 0 1.32 0 2 0 C4 3 4 3 4 6 C4.99 6 5.98 6 7 6 C6.67 6.66 6.34 7.32 6 8 C2.25 6.75 1.76 5.43 0 2 C0 1.34 0 0.68 0 0 Z " fill="#E66F26" transform="translate(285,139)"/>
<path d="M0 0 C0.99 0.33 1.98 0.66 3 1 C0.95 3.25 -0.01 4 -3 5 C-3.66 4.01 -4.32 3.02 -5 2 C-3.35 2 -1.7 2 0 2 C0 1.34 0 0.68 0 0 Z " fill="#C62B34" transform="translate(201,35)"/>
</svg>
